<svg width="512" height="512" xmlns="http://www.w3.org/2000/svg">
 <g>
  <title>Layer 1</title>
  <path fill="#5fbf00" d="m260.252,29.83c-1.173,-0.01 -2.345,-0.003 -3.516,0.018c-15.608,0.282 -30.968,3.33 -44.71,10.203c-29.86,14.93 -47.942,38.91 -53.255,61.995c-4.703,20.442 -0.065,39.793 15.7,54.012c44.847,-57.15 108.49,-91.395 155.475,-109.645c-13.033,-6.054 -28.6,-11.46 -45.144,-14.312c-8.09,-1.396 -16.34,-2.203 -24.548,-2.27l-0.002,-0.001zm95.853,26.29l-1.26,0.42c-4.97,1.656 -10.29,3.558 -15.868,5.694l33.955,28.65c-5.9,-12.806 -12.63,-26.41 -16.827,-34.765l0,0.001zm-41.98,16.566c-6.224,2.856 -12.62,5.986 -19.113,9.375l26.267,21.928l-7.155,-31.302l0.001,-0.001zm20.648,9.556l8.018,35.078c7.872,-2.74 15.732,-5.547 23.585,-8.414l-31.602,-26.664l-0.001,0zm-63.11,13.002c-7.805,4.763 -15.627,9.92 -23.352,15.48l28.053,16.176l-4.7,-31.656l-0.001,0zm19.208,6.807l4.566,30.747c7.82,-2.373 15.625,-4.84 23.416,-7.39l-27.98,-23.356l-0.002,-0.001zm87.528,21.507c-60.87,22.443 -122.75,41.984 -187.195,51.957c11.394,13.965 29.036,23.11 49.475,27.61c25.326,5.58 54.222,3.755 76.476,-3.663c22.008,-7.335 40.552,-22.244 51.358,-38.452c8.73,-13.097 12.104,-26.365 9.886,-37.45l0,-0.002zm-139.275,2.65l-4.018,22.69c10.154,-2.305 20.27,-4.81 30.346,-7.51l-26.327,-15.18l-0.001,0zm-19.668,7.846c-7.66,6.975 -15.054,14.41 -22.023,22.35c6.243,-1.06 12.467,-2.212 18.675,-3.446l3.348,-18.904zm-39.037,56.703c-2.14,5.79 -4.03,11.735 -5.47,17.728c-2.922,12.143 -4.647,24.74 0.17,37.76c6.585,17.802 22.853,28.142 37.896,31.912c15.042,3.77 30.214,3.44 44.193,3.442c13.98,0 26.77,0.376 34.5,2.474c7.153,1.942 8.95,2.96 10.61,7.922c-0.072,0.134 -0.01,-0.04 -0.174,0.264c-0.903,1.663 -3.53,5.016 -7.598,8.676c-5.883,5.29 -14.55,11.262 -24.162,17.035c-24.288,0.58 -30.506,-5.795 -41.12,-14.107l-11.097,14.17c6.312,4.943 14,10.76 25.473,14.406c-8.186,4.046 -15.986,7.626 -22.626,10.56l77.357,0c7.303,-4.77 14.19,-9.85 20.247,-15.3c5.977,-5.374 11.27,-11.087 15.17,-18.276c3.9,-7.19 6.304,-16.948 3.477,-26.522c-5.36,-18.145 -21.255,-29.536 -36.125,-33.572c-14.87,-4.036 -29.893,-3.73 -43.93,-3.732c-14.035,0 -27.078,-0.265 -35.442,-2.362c-8.365,-2.096 -10.693,-3.555 -12.885,-9.48c-0.578,-1.563 -1,-8.258 1.066,-16.85c0.355,-1.478 0.783,-3.02 1.24,-4.582c-11.666,-5.26 -22.25,-12.368 -30.772,-21.568l0.002,0.002zm156.96,40.207c-0.638,-0.004 -1.283,0.014 -1.937,0.055c-6.265,0.39 -12.135,2.447 -17.614,5.336c6.668,3.108 13.134,7.306 18.84,12.64c1.62,0.002 9.167,2.677 15.008,6.348c5.937,3.73 10.566,7.574 10.566,7.574l11.52,-13.832s-5.42,-4.53 -12.508,-8.982c-6.644,-4.176 -14.322,-9.08 -23.875,-9.14l0,0.001zm-237.04,33.152l-8.676,15.77s11.36,6.268 25.512,11.525c14.15,5.257 30.98,10.82 46.072,4.985c7.326,-2.833 12.883,-8.033 17.408,-14.047c-4.894,-3.69 -9.435,-8.087 -13.338,-13.248c-4.013,5.412 -8.07,9.542 -10.562,10.505c-5.42,2.096 -20.59,-0.342 -33.31,-5.068c-12.722,-4.725 -23.106,-10.422 -23.106,-10.422zm36.661,96.884l0,30l238,0l0,-30l-238,0zm33.623,48l13.002,78l144.75,0l13.002,-78l-170.754,0z" id="svg_1"/>
 </g>

</svg>